<?xml version="1.0" standalone="no"?>
<!DOCTYPE svg PUBLIC "-//W3C//DTD SVG 20010904//EN"
 "http://www.w3.org/TR/2001/REC-SVG-20010904/DTD/svg10.dtd">
<svg version="1.0" xmlns="http://www.w3.org/2000/svg"
 width="500.000000pt" height="500.000000pt" viewBox="0 0 500.000000 500.000000"
 preserveAspectRatio="xMidYMid meet">
<metadata>
Created by potrace 1.16, written by Peter Selinger 2001-2019
</metadata>
<g transform="translate(0.000000,500.000000) scale(0.100000,-0.100000)"
fill="#000000" stroke="none">
<path d="M2305 4744 c-16 -2 -73 -9 -125 -15 -541 -61 -1094 -362 -1449 -788
-282 -338 -446 -698 -518 -1136 -24 -151 -24 -429 0 -580 93 -564 371 -1061
789 -1407 325 -271 677 -432 1108 -510 185 -33 450 -31 650 5 252 45 260 53
59 49 -353 -7 -605 35 -894 150 -704 279 -1219 952 -1305 1703 -13 118 -13
470 1 593 92 844 710 1563 1534 1787 192 52 295 66 555 72 l245 6 -70 18
c-145 38 -475 68 -580 53z"/>
<path d="M2817 4275 c-138 -19 -139 -23 -6 -24 880 -6 1593 -654 1680 -1526
14 -141 7 -410 -14 -536 -92 -542 -435 -999 -932 -1239 -216 -105 -432 -158
-685 -169 l-145 -6 85 -15 c131 -23 378 -19 515 8 385 76 693 239 961 506 272
273 439 594 511 981 26 146 24 392 -5 545 -64 337 -227 662 -454 906 -398 426
-972 642 -1511 569z"/>
<path d="M2469 3720 c-83 -10 -249 -53 -337 -86 -235 -88 -461 -262 -561 -431
-54 -92 -68 -150 -46 -192 20 -39 73 -66 110 -57 39 10 106 82 155 167 132
228 201 304 331 368 124 61 216 81 399 88 230 8 352 -16 465 -92 66 -44 106
-95 132 -170 22 -62 24 -275 4 -345 -38 -131 -139 -278 -255 -372 -135 -109
-278 -158 -458 -158 l-108 0 0 50 c0 41 14 80 74 214 126 277 151 366 102 366
-24 0 -149 -142 -217 -245 -64 -97 -192 -318 -279 -480 -24 -44 -91 -168 -150
-275 -108 -197 -149 -272 -213 -390 -66 -123 -66 -181 1 -229 39 -28 58 -27
105 6 104 72 189 234 329 628 28 77 55 153 60 168 10 27 13 28 65 25 l55 -3
38 -105 c101 -285 196 -454 324 -581 67 -67 166 -120 234 -127 104 -10 297 63
440 165 163 116 299 283 230 283 -5 0 -49 -40 -96 -88 -74 -74 -102 -95 -182
-134 -110 -54 -174 -68 -317 -68 -120 0 -159 12 -216 68 -115 111 -225 353
-235 518 l-4 81 86 22 c241 60 483 197 641 362 172 180 241 365 204 541 -13
60 -62 162 -108 225 -142 196 -500 322 -802 283z"/>
</g>
</svg>
